# xmcd CD database file
#
# Track frame offsets:
#	150
#	40497
#	119082
#	177055
#
# Disc length: 3490 seconds
#
# Revision: 1
# Processed by: cddbd v1.5.2PL0 Copyright (c) Steve Scherf et al.
# Submitted via: CDex 1.70beta3
#
DISCID=330da004
DTITLE=SETOUCHI ZYKUCHO - JYAKUAN_SYUGYOU
DYEAR=1900
DGENRE=Blues
TTITLE0=1_SYUGYOU
TTITLE1=2_SYUGYOU
TTITLE2=3_SYUGYOU
TTITLE3=4_SYUGYOU
EXTD=
EXTT0=
EXTT1=
EXTT2=
EXTT3=
PLAYORDER=
